<svg width="579" height="86" viewBox="0 0 579 86" fill="none" xmlns="http://www.w3.org/2000/svg">
<path d="M136.377 58.7022L136.377 58.7022C133.286 58.8907 130.714 58.9867 128.674 58.9867C126.63 58.9867 124.242 58.8905 121.515 58.7011L121.494 58.6996L121.473 58.6977C120.22 58.5838 118.988 58.2333 118.02 57.4324C116.993 56.5823 116.49 55.4137 116.401 54.1494L116.401 54.1386L116.4 54.1277C116.361 53.4709 116.323 52.6313 116.286 51.6132L116.286 51.6106C116.249 50.5898 116.195 49.7136 116.125 48.977L116.12 48.9298L116.118 48.8825C116.102 48.5515 116.045 48.3731 116.004 48.2857C115.994 48.284 115.984 48.2823 115.973 48.2807C115.895 48.2692 115.788 48.2602 115.645 48.2602H111.433C111.248 48.2602 111.121 48.2753 111.041 48.2907C110.991 48.4154 110.934 48.6185 110.901 48.9341C110.865 49.6989 110.828 50.5908 110.792 51.6106L110.792 51.6132C110.754 52.6313 110.716 53.4709 110.677 54.1277L110.677 54.1386L110.676 54.1494C110.588 55.4137 110.085 56.5823 109.057 57.4324C108.09 58.2333 106.858 58.5838 105.605 58.6977L105.583 58.6996L105.562 58.7011C102.829 58.8909 100.311 58.9867 98.0105 58.9867C95.7487 58.9867 93.0664 58.891 89.9702 58.7022L89.9589 58.7015L89.9589 58.7015C88.4447 58.6005 87.0587 58.0736 85.9821 56.9969L85.9619 56.9767L85.9422 56.956C85.021 55.9806 84.4547 54.7997 84.3371 53.4573C84.029 50.0653 83.8799 44.6912 83.8799 37.3869C83.8799 30.1046 83.9539 25.296 84.1092 23.042C84.1883 21.8763 84.3201 20.841 84.5184 19.9595C84.7097 19.1094 84.99 18.2754 85.4396 17.5939C86.5169 15.9191 88.4432 15.4501 90.2604 15.4501H103.963C105.779 15.4501 107.393 16.0924 108.677 17.3693C110.036 18.6816 110.681 20.3776 110.681 22.2798V34.0734C110.681 34.0808 110.681 34.0881 110.681 34.0952H116.396C116.397 34.0881 116.397 34.0808 116.397 34.0734V22.2798C116.397 20.396 117.01 18.7037 118.33 17.3837L118.345 17.3693L118.359 17.3551C119.672 16.0951 121.293 15.4501 123.114 15.4501H136.087C137.904 15.4501 139.83 15.9191 140.908 17.5939C141.357 18.2754 141.638 19.1094 141.829 19.9595C142.027 20.8407 142.159 21.8756 142.238 23.0408L136.377 58.7022ZM136.377 58.7022L136.389 58.7015M136.377 58.7022L136.389 58.7015M136.389 58.7015C137.891 58.6013 139.278 58.0783 140.329 56.9772M136.389 58.7015L140.329 56.9772M190.625 28.5451L190.637 28.5274C191.321 27.5025 192.402 26.9958 193.43 26.7453C194.006 26.5849 194.489 26.3436 194.899 26.0311C195.534 25.5366 196.846 24.4447 198.867 22.723L198.874 22.7171L198.881 22.7113C200.929 20.9979 202.432 19.8054 203.323 19.2117L203.34 19.1999L203.358 19.1885C204.569 18.4181 205.973 18.0896 207.465 18.0896H210.273C211.002 18.0896 211.685 18.1355 212.291 18.2517C212.856 18.3597 213.505 18.5561 214.065 18.9607C215.178 19.7259 215.586 20.9156 215.586 22.0552V26.5698H220.606C221.762 26.5698 223.1 26.797 224.069 27.7448C224.697 28.3378 224.986 29.1152 225.136 29.7544C225.297 30.4385 225.358 31.2204 225.358 32.0517C225.358 32.867 225.297 33.6378 225.134 34.3155C224.978 34.9644 224.679 35.7442 224.035 36.334M190.625 28.5451L224.035 36.334M190.625 28.5451L190.614 28.5631M190.625 28.5451L190.614 28.5631M224.035 36.334C223.075 37.214 221.828 37.4774 220.662 37.4774H215.586V43.6685C215.642 44.4423 215.912 45.0207 216.388 45.5039C216.816 45.9061 217.516 46.2258 218.753 46.2258C219.216 46.2258 219.939 46.099 220.979 45.7322C221.579 45.5006 222.118 45.3127 222.584 45.1795C223.016 45.0559 223.536 44.9341 224.032 44.9341C225.851 44.9341 226.718 46.3937 227.064 47.4177C227.423 48.4823 227.548 49.87 227.548 51.4269C227.548 53.7539 226.937 56.2911 224.529 57.2232M224.035 36.334L224.529 57.2232M190.614 28.5631C190.023 29.4913 189.908 30.709 189.908 31.7709C189.908 32.8105 189.978 33.7933 190.211 34.572C190.483 35.5492 191.095 36.3468 191.991 36.8535C192.601 37.1983 193.275 37.3712 193.952 37.4402V43.8453C193.952 49.3925 195.662 53.7416 199.661 56.0748L199.678 56.0843L199.695 56.0936C201.504 57.1036 203.486 57.809 205.627 58.2207L205.648 58.2248L205.67 58.2284C207.773 58.5856 209.963 58.7621 212.238 58.7621C214.49 58.7621 216.742 58.6262 218.992 58.3546C221.219 58.0859 223.064 57.7284 224.457 57.2495L224.493 57.237M190.614 28.5631L224.493 57.237M224.493 57.237L224.529 57.2232M224.493 57.237L224.529 57.2232M140.329 56.9772C141.286 56.0117 141.89 54.8257 142.01 53.458C142.318 50.066 142.467 44.6917 142.467 37.3869C142.467 30.1058 142.394 25.2976 142.238 23.0431L140.329 56.9772ZM108.793 51.5392C108.831 50.4909 108.868 49.5736 108.906 48.7874L108.793 51.5392ZM167.821 39.1856L167.826 39.1979L167.832 39.21C168.113 39.8433 168.333 40.9743 168.333 42.7782C168.333 44.7645 168.061 45.9461 167.735 46.5635C167.588 46.8427 167.462 46.9454 167.4 46.985C167.345 47.0197 167.243 47.0682 167.02 47.0682C166.797 47.0682 166.694 47.0197 166.64 46.985C166.577 46.9454 166.451 46.8427 166.304 46.5635C165.979 45.9461 165.706 44.7645 165.706 42.7782C165.706 40.9743 165.926 39.8433 166.208 39.21L166.213 39.1979L166.219 39.1856C166.297 39.0036 166.365 38.958 166.401 38.9366C166.456 38.9038 166.626 38.8253 167.02 38.8253C167.414 38.8253 167.584 38.9038 167.639 38.9366C167.675 38.958 167.743 39.0036 167.821 39.1856ZM215.588 27.4362C215.588 27.4363 215.587 27.4322 215.587 27.4233C215.588 27.4316 215.588 27.4361 215.588 27.4362ZM194.818 37.4832C194.818 37.4834 194.812 37.4828 194.801 37.4807C194.813 37.4818 194.818 37.4829 194.818 37.4832ZM167.02 60.0538C174.186 60.0538 179.922 58.7579 183.909 55.8509C188.013 52.8581 189.967 48.3795 189.967 42.7782C189.967 37.3819 187.941 33.0168 183.83 29.9442C179.785 26.9212 174.083 25.5589 167.02 25.5589C159.957 25.5589 154.255 26.9212 150.21 29.9442C146.099 33.0168 144.072 37.3819 144.072 42.7782C144.072 48.3795 146.027 52.8581 150.131 55.8509C154.117 58.7579 159.853 60.0538 167.02 60.0538Z" fill="white" stroke="#333333" stroke-width="4"/>
<mask id="path-2-outside-1" maskUnits="userSpaceOnUse" x="226.71" y="12.72" width="221" height="49" fill="black">
<rect fill="white" x="226.71" y="12.72" width="221" height="49"/>
<path d="M263.901 26.6042C260.531 26.6042 258.154 27.484 256.769 29.2437C255.421 30.9659 254.747 33.7178 254.747 37.4992C254.747 43.4522 256.488 46.4286 259.97 46.4286C260.681 46.4286 261.149 46.4099 261.374 46.3725C260.925 46.3725 260.55 45.5862 260.251 44.0138C259.989 42.4413 259.857 40.7939 259.857 39.0717C259.857 37.3494 260.325 36.245 261.261 35.7582C262.197 35.2341 263.489 34.972 265.137 34.972C266.821 34.972 267.982 34.9907 268.618 35.0282C269.292 35.0282 270.041 35.103 270.865 35.2528C271.726 35.3651 272.381 35.5523 272.83 35.8144C273.879 36.4134 274.403 37.312 274.403 38.5101V46.7094C274.403 49.6298 273.879 51.9698 272.83 53.7294C271.782 55.4517 269.817 56.4626 266.934 56.7621C262.89 57.1739 256.713 57.3798 248.401 57.3798C245.069 57.3798 242.205 56.8557 239.808 55.8074C237.45 54.759 235.615 53.2989 234.305 51.4269C231.909 47.945 230.71 43.527 230.71 38.1731C230.71 32.7818 232.433 27.9894 235.877 23.7962C239.322 19.6029 243.908 17.3565 249.636 17.057C253.568 16.8323 256.413 16.72 258.173 16.72C264.575 16.72 269.124 17.1131 271.82 17.8994C273.654 18.4235 274.571 19.9024 274.571 22.336C274.571 25.5933 273.617 27.2219 271.707 27.2219C271.108 27.1845 269.91 27.0722 268.113 26.885C266.316 26.6978 264.912 26.6042 263.901 26.6042Z"/>
<path d="M284.897 28.2328H295.848C297.121 28.2328 298.001 28.5136 298.488 29.0752C298.974 29.5994 299.218 30.4043 299.218 31.4901V33.5118C301.314 29.5432 304.721 27.5589 309.439 27.5589C311.011 27.5589 312.303 28.0643 313.314 29.0752C314.325 30.0861 314.83 31.4339 314.83 33.1187C314.83 34.8035 314.381 36.4883 313.482 38.1731C312.584 39.8205 311.33 40.6442 309.72 40.6442C308.971 40.6442 307.923 40.2698 306.575 39.521C305.227 38.7347 304.141 38.3416 303.317 38.3416C302.494 38.3416 301.633 38.6411 300.734 39.2402C299.873 39.8392 299.442 40.8314 299.442 42.2166C299.442 48.2445 299.33 52.2318 299.105 54.1787C298.993 54.8152 298.675 55.3768 298.151 55.8635C297.627 56.3502 296.691 56.6498 295.343 56.7621C294.032 56.837 292.722 56.8744 291.412 56.8744C290.101 56.8744 287.873 56.7995 284.728 56.6498C283.83 56.6123 283.119 56.3502 282.594 55.8635C282.07 55.3768 281.771 54.8152 281.696 54.1787C281.434 51.7451 281.303 48.0198 281.303 43.0029C281.303 37.9859 281.378 34.5602 281.527 32.7256C281.677 30.8536 281.958 29.6368 282.37 29.0752C282.782 28.5136 283.624 28.2328 284.897 28.2328Z"/>
<path d="M325.963 29.9738C327.685 29.1126 329.445 28.4949 331.242 28.1205C333.076 27.7461 335.323 27.5589 337.981 27.5589C340.677 27.5589 343.241 27.8958 345.675 28.5698C348.108 29.2062 349.924 30.0861 351.122 31.2093C353.219 33.2685 354.267 35.6834 354.267 38.4539C354.267 42.797 350.598 44.9685 343.26 44.9685C340.677 44.9685 338 44.7251 335.229 44.2384C335.341 46.7094 335.791 48.4504 336.577 49.4613C337.401 50.4722 338.842 50.9776 340.901 50.9776C342.96 50.9776 344.664 50.753 346.012 50.3037C347.36 49.8544 348.445 49.4051 349.269 48.9558C350.093 48.4691 350.785 48.2258 351.347 48.2258C351.946 48.2258 352.451 48.4878 352.863 49.012C353.5 49.6859 353.818 50.6219 353.818 51.82C353.818 52.9806 353.575 53.7856 353.088 54.2349C352.639 54.6467 351.909 55.0586 350.898 55.4704C347.341 56.968 342.286 57.7168 335.734 57.7168C330.306 57.7168 325.832 56.4251 322.312 53.8418C318.83 51.221 317.089 47.7016 317.089 43.2837C317.089 41.1496 317.482 39.2027 318.269 37.443C319.055 35.6459 320.103 34.167 321.414 33.0064C322.724 31.8083 324.24 30.7974 325.963 29.9738ZM338.992 33.9611C336.708 33.9611 335.472 35.8144 335.285 39.521C337.082 39.6707 338.018 39.7456 338.093 39.7456C340.564 39.7456 341.8 38.9219 341.8 37.2746C341.8 35.0656 340.864 33.9611 338.992 33.9611Z"/>
<path d="M367.644 29.9738C369.366 29.1126 371.126 28.4949 372.923 28.1205C374.757 27.7461 377.004 27.5589 379.662 27.5589C382.358 27.5589 384.922 27.8958 387.356 28.5698C389.79 29.2062 391.605 30.0861 392.804 31.2093C394.9 33.2685 395.949 35.6834 395.949 38.4539C395.949 42.797 392.279 44.9685 384.941 44.9685C382.358 44.9685 379.681 44.7251 376.91 44.2384C377.023 46.7094 377.472 48.4504 378.258 49.4613C379.082 50.4722 380.523 50.9776 382.582 50.9776C384.642 50.9776 386.345 50.753 387.693 50.3037C389.041 49.8544 390.127 49.4051 390.95 48.9558C391.774 48.4691 392.467 48.2258 393.028 48.2258C393.627 48.2258 394.133 48.4878 394.545 49.012C395.181 49.6859 395.499 50.6219 395.499 51.82C395.499 52.9806 395.256 53.7856 394.769 54.2349C394.32 54.6467 393.59 55.0586 392.579 55.4704C389.022 56.968 383.968 57.7168 377.416 57.7168C371.987 57.7168 367.513 56.4251 363.993 53.8418C360.512 51.221 358.771 47.7016 358.771 43.2837C358.771 41.1496 359.164 39.2027 359.95 37.443C360.736 35.6459 361.785 34.167 363.095 33.0064C364.405 31.8083 365.922 30.7974 367.644 29.9738ZM380.673 33.9611C378.389 33.9611 377.154 35.8144 376.966 39.521C378.764 39.6707 379.7 39.7456 379.774 39.7456C382.245 39.7456 383.481 38.9219 383.481 37.2746C383.481 35.0656 382.545 33.9611 380.673 33.9611Z"/>
<path d="M425.948 54.4034L426.005 40.7003C426.005 39.5771 425.724 38.7347 425.162 38.1731C424.601 37.6115 423.889 37.3307 423.028 37.3307C422.204 37.3307 421.437 37.6302 420.726 38.2293C420.052 38.7909 419.715 39.5958 419.715 40.6442V44.0699C419.715 49.012 419.602 52.3816 419.378 54.1787C419.265 54.8152 418.947 55.3768 418.423 55.8635C417.899 56.3502 416.963 56.6498 415.615 56.7621C414.305 56.837 412.994 56.8744 411.684 56.8744C410.373 56.8744 408.146 56.7995 405.001 56.6498C404.102 56.6123 403.391 56.3502 402.867 55.8635C402.343 55.3768 402.043 54.8152 401.968 54.1787C401.706 51.7451 401.575 48.0198 401.575 43.0029C401.575 37.9859 401.65 34.5602 401.8 32.7256C401.949 30.8536 402.23 29.6368 402.642 29.0752C403.054 28.5136 403.896 28.2328 405.169 28.2328H416.12C417.393 28.2328 418.236 28.5136 418.648 29.0752C419.097 29.6368 419.378 30.5915 419.49 31.9394V31.9955C422.373 29.0003 425.874 27.5027 429.992 27.5027C434.148 27.5027 437.405 28.5136 439.764 30.5354C442.123 32.5571 443.321 35.3464 443.358 38.9032C443.433 42.46 443.47 45.6424 443.47 48.4504C443.47 51.2584 443.452 53.1491 443.414 54.1226C443.377 55.096 443.115 55.8074 442.628 56.2566C442.179 56.6685 441.28 56.8744 439.932 56.8744L429.15 56.9867C427.952 56.9867 427.109 56.7808 426.622 56.369C426.173 55.9197 425.948 55.2645 425.948 54.4034Z"/>
</mask>
<path d="M263.901 26.6042C260.531 26.6042 258.154 27.484 256.769 29.2437C255.421 30.9659 254.747 33.7178 254.747 37.4992C254.747 43.4522 256.488 46.4286 259.97 46.4286C260.681 46.4286 261.149 46.4099 261.374 46.3725C260.925 46.3725 260.55 45.5862 260.251 44.0138C259.989 42.4413 259.857 40.7939 259.857 39.0717C259.857 37.3494 260.325 36.245 261.261 35.7582C262.197 35.2341 263.489 34.972 265.137 34.972C266.821 34.972 267.982 34.9907 268.618 35.0282C269.292 35.0282 270.041 35.103 270.865 35.2528C271.726 35.3651 272.381 35.5523 272.83 35.8144C273.879 36.4134 274.403 37.312 274.403 38.5101V46.7094C274.403 49.6298 273.879 51.9698 272.83 53.7294C271.782 55.4517 269.817 56.4626 266.934 56.7621C262.89 57.1739 256.713 57.3798 248.401 57.3798C245.069 57.3798 242.205 56.8557 239.808 55.8074C237.45 54.759 235.615 53.2989 234.305 51.4269C231.909 47.945 230.71 43.527 230.71 38.1731C230.71 32.7818 232.433 27.9894 235.877 23.7962C239.322 19.6029 243.908 17.3565 249.636 17.057C253.568 16.8323 256.413 16.72 258.173 16.72C264.575 16.72 269.124 17.1131 271.82 17.8994C273.654 18.4235 274.571 19.9024 274.571 22.336C274.571 25.5933 273.617 27.2219 271.707 27.2219C271.108 27.1845 269.91 27.0722 268.113 26.885C266.316 26.6978 264.912 26.6042 263.901 26.6042Z" fill="#06D6A0"/>
<path d="M284.897 28.2328H295.848C297.121 28.2328 298.001 28.5136 298.488 29.0752C298.974 29.5994 299.218 30.4043 299.218 31.4901V33.5118C301.314 29.5432 304.721 27.5589 309.439 27.5589C311.011 27.5589 312.303 28.0643 313.314 29.0752C314.325 30.0861 314.83 31.4339 314.83 33.1187C314.83 34.8035 314.381 36.4883 313.482 38.1731C312.584 39.8205 311.33 40.6442 309.72 40.6442C308.971 40.6442 307.923 40.2698 306.575 39.521C305.227 38.7347 304.141 38.3416 303.317 38.3416C302.494 38.3416 301.633 38.6411 300.734 39.2402C299.873 39.8392 299.442 40.8314 299.442 42.2166C299.442 48.2445 299.33 52.2318 299.105 54.1787C298.993 54.8152 298.675 55.3768 298.151 55.8635C297.627 56.3502 296.691 56.6498 295.343 56.7621C294.032 56.837 292.722 56.8744 291.412 56.8744C290.101 56.8744 287.873 56.7995 284.728 56.6498C283.83 56.6123 283.119 56.3502 282.594 55.8635C282.07 55.3768 281.771 54.8152 281.696 54.1787C281.434 51.7451 281.303 48.0198 281.303 43.0029C281.303 37.9859 281.378 34.5602 281.527 32.7256C281.677 30.8536 281.958 29.6368 282.37 29.0752C282.782 28.5136 283.624 28.2328 284.897 28.2328Z" fill="#06D6A0"/>
<path d="M325.963 29.9738C327.685 29.1126 329.445 28.4949 331.242 28.1205C333.076 27.7461 335.323 27.5589 337.981 27.5589C340.677 27.5589 343.241 27.8958 345.675 28.5698C348.108 29.2062 349.924 30.0861 351.122 31.2093C353.219 33.2685 354.267 35.6834 354.267 38.4539C354.267 42.797 350.598 44.9685 343.26 44.9685C340.677 44.9685 338 44.7251 335.229 44.2384C335.341 46.7094 335.791 48.4504 336.577 49.4613C337.401 50.4722 338.842 50.9776 340.901 50.9776C342.96 50.9776 344.664 50.753 346.012 50.3037C347.36 49.8544 348.445 49.4051 349.269 48.9558C350.093 48.4691 350.785 48.2258 351.347 48.2258C351.946 48.2258 352.451 48.4878 352.863 49.012C353.5 49.6859 353.818 50.6219 353.818 51.82C353.818 52.9806 353.575 53.7856 353.088 54.2349C352.639 54.6467 351.909 55.0586 350.898 55.4704C347.341 56.968 342.286 57.7168 335.734 57.7168C330.306 57.7168 325.832 56.4251 322.312 53.8418C318.83 51.221 317.089 47.7016 317.089 43.2837C317.089 41.1496 317.482 39.2027 318.269 37.443C319.055 35.6459 320.103 34.167 321.414 33.0064C322.724 31.8083 324.24 30.7974 325.963 29.9738ZM338.992 33.9611C336.708 33.9611 335.472 35.8144 335.285 39.521C337.082 39.6707 338.018 39.7456 338.093 39.7456C340.564 39.7456 341.8 38.9219 341.8 37.2746C341.8 35.0656 340.864 33.9611 338.992 33.9611Z" fill="#06D6A0"/>
<path d="M367.644 29.9738C369.366 29.1126 371.126 28.4949 372.923 28.1205C374.757 27.7461 377.004 27.5589 379.662 27.5589C382.358 27.5589 384.922 27.8958 387.356 28.5698C389.79 29.2062 391.605 30.0861 392.804 31.2093C394.9 33.2685 395.949 35.6834 395.949 38.4539C395.949 42.797 392.279 44.9685 384.941 44.9685C382.358 44.9685 379.681 44.7251 376.91 44.2384C377.023 46.7094 377.472 48.4504 378.258 49.4613C379.082 50.4722 380.523 50.9776 382.582 50.9776C384.642 50.9776 386.345 50.753 387.693 50.3037C389.041 49.8544 390.127 49.4051 390.95 48.9558C391.774 48.4691 392.467 48.2258 393.028 48.2258C393.627 48.2258 394.133 48.4878 394.545 49.012C395.181 49.6859 395.499 50.6219 395.499 51.82C395.499 52.9806 395.256 53.7856 394.769 54.2349C394.32 54.6467 393.59 55.0586 392.579 55.4704C389.022 56.968 383.968 57.7168 377.416 57.7168C371.987 57.7168 367.513 56.4251 363.993 53.8418C360.512 51.221 358.771 47.7016 358.771 43.2837C358.771 41.1496 359.164 39.2027 359.95 37.443C360.736 35.6459 361.785 34.167 363.095 33.0064C364.405 31.8083 365.922 30.7974 367.644 29.9738ZM380.673 33.9611C378.389 33.9611 377.154 35.8144 376.966 39.521C378.764 39.6707 379.7 39.7456 379.774 39.7456C382.245 39.7456 383.481 38.9219 383.481 37.2746C383.481 35.0656 382.545 33.9611 380.673 33.9611Z" fill="#06D6A0"/>
<path d="M425.948 54.4034L426.005 40.7003C426.005 39.5771 425.724 38.7347 425.162 38.1731C424.601 37.6115 423.889 37.3307 423.028 37.3307C422.204 37.3307 421.437 37.6302 420.726 38.2293C420.052 38.7909 419.715 39.5958 419.715 40.6442V44.0699C419.715 49.012 419.602 52.3816 419.378 54.1787C419.265 54.8152 418.947 55.3768 418.423 55.8635C417.899 56.3502 416.963 56.6498 415.615 56.7621C414.305 56.837 412.994 56.8744 411.684 56.8744C410.373 56.8744 408.146 56.7995 405.001 56.6498C404.102 56.6123 403.391 56.3502 402.867 55.8635C402.343 55.3768 402.043 54.8152 401.968 54.1787C401.706 51.7451 401.575 48.0198 401.575 43.0029C401.575 37.9859 401.65 34.5602 401.8 32.7256C401.949 30.8536 402.23 29.6368 402.642 29.0752C403.054 28.5136 403.896 28.2328 405.169 28.2328H416.12C417.393 28.2328 418.236 28.5136 418.648 29.0752C419.097 29.6368 419.378 30.5915 419.49 31.9394V31.9955C422.373 29.0003 425.874 27.5027 429.992 27.5027C434.148 27.5027 437.405 28.5136 439.764 30.5354C442.123 32.5571 443.321 35.3464 443.358 38.9032C443.433 42.46 443.47 45.6424 443.47 48.4504C443.47 51.2584 443.452 53.1491 443.414 54.1226C443.377 55.096 443.115 55.8074 442.628 56.2566C442.179 56.6685 441.28 56.8744 439.932 56.8744L429.15 56.9867C427.952 56.9867 427.109 56.7808 426.622 56.369C426.173 55.9197 425.948 55.2645 425.948 54.4034Z" fill="#06D6A0"/>
<path d="M263.901 26.6042C260.531 26.6042 258.154 27.484 256.769 29.2437C255.421 30.9659 254.747 33.7178 254.747 37.4992C254.747 43.4522 256.488 46.4286 259.97 46.4286C260.681 46.4286 261.149 46.4099 261.374 46.3725C260.925 46.3725 260.55 45.5862 260.251 44.0138C259.989 42.4413 259.857 40.7939 259.857 39.0717C259.857 37.3494 260.325 36.245 261.261 35.7582C262.197 35.2341 263.489 34.972 265.137 34.972C266.821 34.972 267.982 34.9907 268.618 35.0282C269.292 35.0282 270.041 35.103 270.865 35.2528C271.726 35.3651 272.381 35.5523 272.83 35.8144C273.879 36.4134 274.403 37.312 274.403 38.5101V46.7094C274.403 49.6298 273.879 51.9698 272.83 53.7294C271.782 55.4517 269.817 56.4626 266.934 56.7621C262.89 57.1739 256.713 57.3798 248.401 57.3798C245.069 57.3798 242.205 56.8557 239.808 55.8074C237.45 54.759 235.615 53.2989 234.305 51.4269C231.909 47.945 230.71 43.527 230.71 38.1731C230.71 32.7818 232.433 27.9894 235.877 23.7962C239.322 19.6029 243.908 17.3565 249.636 17.057C253.568 16.8323 256.413 16.72 258.173 16.72C264.575 16.72 269.124 17.1131 271.82 17.8994C273.654 18.4235 274.571 19.9024 274.571 22.336C274.571 25.5933 273.617 27.2219 271.707 27.2219C271.108 27.1845 269.91 27.0722 268.113 26.885C266.316 26.6978 264.912 26.6042 263.901 26.6042Z" stroke="#333333" stroke-width="8" mask="url(#path-2-outside-1)"/>
<path d="M284.897 28.2328H295.848C297.121 28.2328 298.001 28.5136 298.488 29.0752C298.974 29.5994 299.218 30.4043 299.218 31.4901V33.5118C301.314 29.5432 304.721 27.5589 309.439 27.5589C311.011 27.5589 312.303 28.0643 313.314 29.0752C314.325 30.0861 314.83 31.4339 314.83 33.1187C314.83 34.8035 314.381 36.4883 313.482 38.1731C312.584 39.8205 311.33 40.6442 309.72 40.6442C308.971 40.6442 307.923 40.2698 306.575 39.521C305.227 38.7347 304.141 38.3416 303.317 38.3416C302.494 38.3416 301.633 38.6411 300.734 39.2402C299.873 39.8392 299.442 40.8314 299.442 42.2166C299.442 48.2445 299.33 52.2318 299.105 54.1787C298.993 54.8152 298.675 55.3768 298.151 55.8635C297.627 56.3502 296.691 56.6498 295.343 56.7621C294.032 56.837 292.722 56.8744 291.412 56.8744C290.101 56.8744 287.873 56.7995 284.728 56.6498C283.83 56.6123 283.119 56.3502 282.594 55.8635C282.07 55.3768 281.771 54.8152 281.696 54.1787C281.434 51.7451 281.303 48.0198 281.303 43.0029C281.303 37.9859 281.378 34.5602 281.527 32.7256C281.677 30.8536 281.958 29.6368 282.37 29.0752C282.782 28.5136 283.624 28.2328 284.897 28.2328Z" stroke="#333333" stroke-width="8" mask="url(#path-2-outside-1)"/>
<path d="M325.963 29.9738C327.685 29.1126 329.445 28.4949 331.242 28.1205C333.076 27.7461 335.323 27.5589 337.981 27.5589C340.677 27.5589 343.241 27.8958 345.675 28.5698C348.108 29.2062 349.924 30.0861 351.122 31.2093C353.219 33.2685 354.267 35.6834 354.267 38.4539C354.267 42.797 350.598 44.9685 343.26 44.9685C340.677 44.9685 338 44.7251 335.229 44.2384C335.341 46.7094 335.791 48.4504 336.577 49.4613C337.401 50.4722 338.842 50.9776 340.901 50.9776C342.96 50.9776 344.664 50.753 346.012 50.3037C347.36 49.8544 348.445 49.4051 349.269 48.9558C350.093 48.4691 350.785 48.2258 351.347 48.2258C351.946 48.2258 352.451 48.4878 352.863 49.012C353.5 49.6859 353.818 50.6219 353.818 51.82C353.818 52.9806 353.575 53.7856 353.088 54.2349C352.639 54.6467 351.909 55.0586 350.898 55.4704C347.341 56.968 342.286 57.7168 335.734 57.7168C330.306 57.7168 325.832 56.4251 322.312 53.8418C318.83 51.221 317.089 47.7016 317.089 43.2837C317.089 41.1496 317.482 39.2027 318.269 37.443C319.055 35.6459 320.103 34.167 321.414 33.0064C322.724 31.8083 324.24 30.7974 325.963 29.9738ZM338.992 33.9611C336.708 33.9611 335.472 35.8144 335.285 39.521C337.082 39.6707 338.018 39.7456 338.093 39.7456C340.564 39.7456 341.8 38.9219 341.8 37.2746C341.8 35.0656 340.864 33.9611 338.992 33.9611Z" stroke="#333333" stroke-width="8" mask="url(#path-2-outside-1)"/>
<path d="M367.644 29.9738C369.366 29.1126 371.126 28.4949 372.923 28.1205C374.757 27.7461 377.004 27.5589 379.662 27.5589C382.358 27.5589 384.922 27.8958 387.356 28.5698C389.79 29.2062 391.605 30.0861 392.804 31.2093C394.9 33.2685 395.949 35.6834 395.949 38.4539C395.949 42.797 392.279 44.9685 384.941 44.9685C382.358 44.9685 379.681 44.7251 376.91 44.2384C377.023 46.7094 377.472 48.4504 378.258 49.4613C379.082 50.4722 380.523 50.9776 382.582 50.9776C384.642 50.9776 386.345 50.753 387.693 50.3037C389.041 49.8544 390.127 49.4051 390.95 48.9558C391.774 48.4691 392.467 48.2258 393.028 48.2258C393.627 48.2258 394.133 48.4878 394.545 49.012C395.181 49.6859 395.499 50.6219 395.499 51.82C395.499 52.9806 395.256 53.7856 394.769 54.2349C394.32 54.6467 393.59 55.0586 392.579 55.4704C389.022 56.968 383.968 57.7168 377.416 57.7168C371.987 57.7168 367.513 56.4251 363.993 53.8418C360.512 51.221 358.771 47.7016 358.771 43.2837C358.771 41.1496 359.164 39.2027 359.95 37.443C360.736 35.6459 361.785 34.167 363.095 33.0064C364.405 31.8083 365.922 30.7974 367.644 29.9738ZM380.673 33.9611C378.389 33.9611 377.154 35.8144 376.966 39.521C378.764 39.6707 379.7 39.7456 379.774 39.7456C382.245 39.7456 383.481 38.9219 383.481 37.2746C383.481 35.0656 382.545 33.9611 380.673 33.9611Z" stroke="#333333" stroke-width="8" mask="url(#path-2-outside-1)"/>
<path d="M425.948 54.4034L426.005 40.7003C426.005 39.5771 425.724 38.7347 425.162 38.1731C424.601 37.6115 423.889 37.3307 423.028 37.3307C422.204 37.3307 421.437 37.6302 420.726 38.2293C420.052 38.7909 419.715 39.5958 419.715 40.6442V44.0699C419.715 49.012 419.602 52.3816 419.378 54.1787C419.265 54.8152 418.947 55.3768 418.423 55.8635C417.899 56.3502 416.963 56.6498 415.615 56.7621C414.305 56.837 412.994 56.8744 411.684 56.8744C410.373 56.8744 408.146 56.7995 405.001 56.6498C404.102 56.6123 403.391 56.3502 402.867 55.8635C402.343 55.3768 402.043 54.8152 401.968 54.1787C401.706 51.7451 401.575 48.0198 401.575 43.0029C401.575 37.9859 401.65 34.5602 401.8 32.7256C401.949 30.8536 402.23 29.6368 402.642 29.0752C403.054 28.5136 403.896 28.2328 405.169 28.2328H416.12C417.393 28.2328 418.236 28.5136 418.648 29.0752C419.097 29.6368 419.378 30.5915 419.49 31.9394V31.9955C422.373 29.0003 425.874 27.5027 429.992 27.5027C434.148 27.5027 437.405 28.5136 439.764 30.5354C442.123 32.5571 443.321 35.3464 443.358 38.9032C443.433 42.46 443.47 45.6424 443.47 48.4504C443.47 51.2584 443.452 53.1491 443.414 54.1226C443.377 55.096 443.115 55.8074 442.628 56.2566C442.179 56.6685 441.28 56.8744 439.932 56.8744L429.15 56.9867C427.952 56.9867 427.109 56.7808 426.622 56.369C426.173 55.9197 425.948 55.2645 425.948 54.4034Z" stroke="#333333" stroke-width="8" mask="url(#path-2-outside-1)"/>
<g filter="url(#filter0_d)">
<path d="M18.1387 49.5422L18.1358 49.5206L18.132 49.499C17.9499 48.4647 17.7906 46.2636 18.3176 44.2267C18.8377 42.217 19.9602 40.5468 22.2451 40.0721L22.3324 40.054L22.415 40.0208C22.5262 39.976 22.6015 39.9574 22.6476 39.9497C22.6479 39.9502 22.6481 39.9507 22.6484 39.9513C22.7054 40.0596 22.7716 40.2649 22.8197 40.608C22.8663 40.9409 22.8884 41.3441 22.8942 41.8116C22.9009 42.358 22.8871 42.8972 22.8724 43.4671C22.8604 43.9373 22.8478 44.4282 22.8457 44.9613C22.8416 46.0318 22.8852 47.1709 23.1323 48.128C23.6579 51.0779 24.6552 53.3103 25.3293 54.8193C25.5308 55.2703 25.7034 55.6567 25.826 55.9783C25.9652 56.3438 26.0238 56.5768 26.0365 56.7272C26.0403 56.7724 26.0393 56.8003 26.0376 56.8158C26.0129 56.8378 25.9365 56.8952 25.7485 56.9655C25.4893 57.0623 25.0967 57.1543 24.5151 57.2313C23.9354 57.2519 23.2792 57.0277 22.5668 56.5356C21.8437 56.036 21.1297 55.3047 20.4832 54.4517C19.1697 52.7183 18.2899 50.6936 18.1387 49.5422ZM26.0343 56.8319C26.0341 56.8317 26.0346 56.8292 26.0362 56.8252C26.0353 56.8301 26.0345 56.8321 26.0343 56.8319ZM76.6093 38.0938C76.6093 45.9807 75.0816 52.9579 71.3023 57.9444C67.562 62.8795 61.4954 66.021 52.0397 66.021C42.584 66.021 36.5174 62.8795 32.7771 57.9444C28.9979 52.9579 27.4702 45.9807 27.4702 38.0938C27.4702 37.4338 27.5618 37.0769 27.6603 36.8875C27.7325 36.7489 27.8233 36.6632 28.0325 36.5986C28.2911 36.5187 28.7047 36.4845 29.365 36.5378C30.0133 36.5901 30.8109 36.7181 31.8001 36.8991C32.2435 36.9802 32.7187 37.0708 33.2268 37.1676C37.2478 37.934 43.334 39.0938 52.0397 39.0938C60.7239 39.0938 66.792 38.1945 70.812 37.5988C71.3205 37.5234 71.7961 37.4529 72.2402 37.3897C73.2298 37.2489 74.0365 37.148 74.6967 37.1066C75.3673 37.0644 75.8137 37.0895 76.1085 37.1603C76.3766 37.2247 76.4445 37.3071 76.4751 37.3528C76.5257 37.4284 76.6093 37.624 76.6093 38.0938ZM71.1983 66.1361C74.4276 64.8058 79.4873 64.3155 99.3204 68.4995C99.0504 68.9197 98.5435 69.4546 97.6399 70.0693C96.0974 71.1188 93.6083 72.2491 89.9179 73.2857C82.5457 75.3563 70.5719 77 52.298 77C34.0241 77 22.0503 75.3563 14.6781 73.2857C10.9877 72.2491 8.49862 71.1188 6.9561 70.0693C6.05251 69.4546 5.54564 68.9197 5.27559 68.4995C25.1087 64.3155 30.1684 64.8058 33.3977 66.1361C34.0592 66.4086 34.6435 66.7152 35.3001 67.0596C35.4898 67.1592 35.6855 67.2618 35.8908 67.3678C36.7922 67.8328 37.8126 68.3229 39.1491 68.7635C41.819 69.6439 45.6597 70.2978 52.298 70.2978C58.9363 70.2978 62.777 69.6439 65.447 68.7635C66.7834 68.3229 67.8039 67.8328 68.7052 67.3678C68.9106 67.2618 69.1063 67.1591 69.296 67.0596C69.9525 66.7152 70.5368 66.4086 71.1983 66.1361Z" fill="#B89E97" stroke="#333333" stroke-width="2"/>
<path d="M60.0094 22.7285C60.0094 29.893 55.6058 34.9007 50.6783 34.9007C48.6988 34.9007 46.6344 33.8516 45.3988 31.8824C44.1777 29.9363 43.705 26.979 45.1584 23.0776C47.6284 16.4476 48.6874 12.1076 49.1199 8.68068C49.4476 6.08421 49.4117 4.01067 49.3761 1.94776C49.3725 1.74257 49.369 1.53748 49.3658 1.332C49.7581 1.51657 50.2206 1.77871 50.7316 2.12632C51.9379 2.94679 53.373 4.21504 54.7498 5.97535C57.4949 9.48517 60.0094 14.9517 60.0094 22.7285Z" fill="#06D6A0" stroke="#333333" stroke-width="2"/>
<path d="M51.7815 29.1854C52.438 27.3157 52.6516 26.4728 53.0729 24.5364C53.6157 22.0411 53.6919 20.1118 53.8477 17.5629C54.045 14.3349 53.0729 10.92 53.0729 10.92" stroke="#333333" stroke-linecap="round"/>
</g>
<mask id="path-6-outside-2" maskUnits="userSpaceOnUse" x="441.538" y="18.3464" width="137" height="42" fill="black">
<rect fill="white" x="441.538" y="18.3464" width="137" height="42"/>
<path d="M473.337 52.3452C473.306 53.0316 473.01 53.6712 472.448 54.264C471.886 54.8256 471.138 55.1376 470.202 55.2C468.423 55.3248 466.286 55.3872 463.79 55.3872C461.294 55.3872 459.001 55.3248 456.91 55.2C455.974 55.1376 455.226 54.8256 454.664 54.264C454.102 53.6712 453.806 53.0316 453.775 52.3452C453.681 47.6028 453.634 43.5624 453.634 40.224C453.634 36.8544 453.65 34.3896 453.681 32.8296C453.681 31.644 453.151 31.0512 452.09 31.0512H447.878C447.223 31.0512 446.692 30.8952 446.287 30.5832C445.881 30.2712 445.647 29.7252 445.585 28.9452C445.554 28.1652 445.538 27.354 445.538 26.5116C445.538 25.6692 445.554 24.9516 445.585 24.3588C445.647 23.7348 445.897 23.2668 446.334 22.9548C446.802 22.6116 447.301 22.44 447.831 22.44C451.887 22.3776 457.378 22.3464 464.305 22.3464C471.231 22.3464 476.192 22.3776 479.187 22.44C479.718 22.4712 480.201 22.6428 480.638 22.9548C481.106 23.2668 481.356 23.7348 481.387 24.3588C481.449 24.9516 481.48 25.6536 481.48 26.4648C481.48 27.276 481.465 28.056 481.434 28.8048C481.34 30.2088 480.576 30.9108 479.14 30.9108H474.928C473.868 30.9108 473.337 31.4568 473.337 32.5488C473.431 36.48 473.478 40.0368 473.478 43.2192C473.478 46.4016 473.431 49.4436 473.337 52.3452Z"/>
<path d="M490.04 32.8296C491.475 32.112 492.941 31.5972 494.439 31.2852C495.968 30.9732 497.84 30.8172 500.055 30.8172C502.301 30.8172 504.439 31.098 506.467 31.6596C508.495 32.19 510.008 32.9232 511.006 33.8592C512.753 35.5752 513.627 37.5876 513.627 39.8964C513.627 43.5156 510.569 45.3252 504.454 45.3252C502.301 45.3252 500.071 45.1224 497.762 44.7168C497.855 46.776 498.23 48.2268 498.885 49.0692C499.571 49.9116 500.773 50.3328 502.489 50.3328C504.205 50.3328 505.624 50.1456 506.747 49.7712C507.871 49.3968 508.775 49.0224 509.462 48.648C510.148 48.2424 510.725 48.0396 511.193 48.0396C511.693 48.0396 512.114 48.258 512.457 48.6948C512.987 49.2564 513.253 50.0364 513.253 51.0348C513.253 52.002 513.05 52.6728 512.644 53.0472C512.27 53.3904 511.661 53.7336 510.819 54.0768C507.855 55.3248 503.643 55.9488 498.183 55.9488C493.659 55.9488 489.931 54.8724 486.998 52.7196C484.096 50.5356 482.645 47.6028 482.645 43.9212C482.645 42.1428 482.973 40.5204 483.628 39.054C484.283 37.5564 485.157 36.324 486.249 35.3568C487.341 34.3584 488.605 33.516 490.04 32.8296ZM500.897 36.1524C498.994 36.1524 497.965 37.6968 497.809 40.7856C499.306 40.9104 500.086 40.9728 500.149 40.9728C502.208 40.9728 503.237 40.2864 503.237 38.9136C503.237 37.0728 502.457 36.1524 500.897 36.1524Z"/>
<path d="M522.434 32.8296C523.869 32.112 525.336 31.5972 526.833 31.2852C528.362 30.9732 530.234 30.8172 532.449 30.8172C534.696 30.8172 536.833 31.098 538.861 31.6596C540.889 32.19 542.402 32.9232 543.4 33.8592C545.148 35.5752 546.021 37.5876 546.021 39.8964C546.021 43.5156 542.964 45.3252 536.848 45.3252C534.696 45.3252 532.465 45.1224 530.156 44.7168C530.25 46.776 530.624 48.2268 531.279 49.0692C531.966 49.9116 533.167 50.3328 534.883 50.3328C536.599 50.3328 538.018 50.1456 539.142 49.7712C540.265 49.3968 541.17 49.0224 541.856 48.648C542.542 48.2424 543.12 48.0396 543.588 48.0396C544.087 48.0396 544.508 48.258 544.851 48.6948C545.382 49.2564 545.647 50.0364 545.647 51.0348C545.647 52.002 545.444 52.6728 545.038 53.0472C544.664 53.3904 544.056 53.7336 543.213 54.0768C540.249 55.3248 536.037 55.9488 530.577 55.9488C526.053 55.9488 522.325 54.8724 519.392 52.7196C516.49 50.5356 515.04 47.6028 515.04 43.9212C515.04 42.1428 515.367 40.5204 516.022 39.054C516.678 37.5564 517.551 36.324 518.643 35.3568C519.735 34.3584 520.999 33.516 522.434 32.8296ZM533.292 36.1524C531.388 36.1524 530.359 37.6968 530.203 40.7856C531.7 40.9104 532.48 40.9728 532.543 40.9728C534.602 40.9728 535.632 40.2864 535.632 38.9136C535.632 37.0728 534.852 36.1524 533.292 36.1524Z"/>
<path d="M558.666 49.0692C558.666 48.1956 558.292 47.5092 557.543 47.01C556.825 46.5108 555.936 46.1364 554.875 45.8868C553.846 45.606 552.8 45.294 551.74 44.9508C550.679 44.5764 549.774 43.9524 549.025 43.0788C548.308 42.174 547.949 40.9884 547.949 39.522C547.949 33.7188 552.457 30.8172 561.474 30.8172C565.343 30.8172 568.447 31.4724 570.787 32.7828C571.536 33.1884 572.066 33.5784 572.378 33.9528C572.69 34.296 572.846 34.92 572.846 35.8248C572.846 36.7296 572.659 37.416 572.285 37.884C571.942 38.3208 571.583 38.5392 571.208 38.5392C570.865 38.5392 570.085 38.196 568.868 37.5096C567.683 36.792 566.45 36.4176 565.171 36.3864C564.142 36.3864 563.627 36.9012 563.627 37.9308C563.627 38.6172 563.986 39.1632 564.703 39.5688C565.421 39.9744 566.294 40.3332 567.324 40.6452C568.354 40.926 569.383 41.2848 570.413 41.7216C571.442 42.1272 572.316 42.8292 573.034 43.8276C573.751 44.7948 574.11 46.0272 574.11 47.5248C574.11 53.328 569.602 56.2296 560.585 56.2296C556.186 56.2296 552.598 55.59 549.821 54.3108C548.978 53.9676 548.37 53.6244 547.996 53.2812C547.621 52.9068 547.434 52.2516 547.434 51.3156C547.434 50.3484 547.621 49.662 547.996 49.2564C548.401 48.8508 548.729 48.648 548.978 48.648C549.259 48.648 550.164 48.9912 551.693 49.6776C553.222 50.364 554.766 50.7072 556.326 50.7072C557.886 50.7072 558.666 50.1612 558.666 49.0692Z"/>
</mask>
<path d="M473.337 52.3452C473.306 53.0316 473.01 53.6712 472.448 54.264C471.886 54.8256 471.138 55.1376 470.202 55.2C468.423 55.3248 466.286 55.3872 463.79 55.3872C461.294 55.3872 459.001 55.3248 456.91 55.2C455.974 55.1376 455.226 54.8256 454.664 54.264C454.102 53.6712 453.806 53.0316 453.775 52.3452C453.681 47.6028 453.634 43.5624 453.634 40.224C453.634 36.8544 453.65 34.3896 453.681 32.8296C453.681 31.644 453.151 31.0512 452.09 31.0512H447.878C447.223 31.0512 446.692 30.8952 446.287 30.5832C445.881 30.2712 445.647 29.7252 445.585 28.9452C445.554 28.1652 445.538 27.354 445.538 26.5116C445.538 25.6692 445.554 24.9516 445.585 24.3588C445.647 23.7348 445.897 23.2668 446.334 22.9548C446.802 22.6116 447.301 22.44 447.831 22.44C451.887 22.3776 457.378 22.3464 464.305 22.3464C471.231 22.3464 476.192 22.3776 479.187 22.44C479.718 22.4712 480.201 22.6428 480.638 22.9548C481.106 23.2668 481.356 23.7348 481.387 24.3588C481.449 24.9516 481.48 25.6536 481.48 26.4648C481.48 27.276 481.465 28.056 481.434 28.8048C481.34 30.2088 480.576 30.9108 479.14 30.9108H474.928C473.868 30.9108 473.337 31.4568 473.337 32.5488C473.431 36.48 473.478 40.0368 473.478 43.2192C473.478 46.4016 473.431 49.4436 473.337 52.3452Z" fill="#B89E97"/>
<path d="M490.04 32.8296C491.475 32.112 492.941 31.5972 494.439 31.2852C495.968 30.9732 497.84 30.8172 500.055 30.8172C502.301 30.8172 504.439 31.098 506.467 31.6596C508.495 32.19 510.008 32.9232 511.006 33.8592C512.753 35.5752 513.627 37.5876 513.627 39.8964C513.627 43.5156 510.569 45.3252 504.454 45.3252C502.301 45.3252 500.071 45.1224 497.762 44.7168C497.855 46.776 498.23 48.2268 498.885 49.0692C499.571 49.9116 500.773 50.3328 502.489 50.3328C504.205 50.3328 505.624 50.1456 506.747 49.7712C507.871 49.3968 508.775 49.0224 509.462 48.648C510.148 48.2424 510.725 48.0396 511.193 48.0396C511.693 48.0396 512.114 48.258 512.457 48.6948C512.987 49.2564 513.253 50.0364 513.253 51.0348C513.253 52.002 513.05 52.6728 512.644 53.0472C512.27 53.3904 511.661 53.7336 510.819 54.0768C507.855 55.3248 503.643 55.9488 498.183 55.9488C493.659 55.9488 489.931 54.8724 486.998 52.7196C484.096 50.5356 482.645 47.6028 482.645 43.9212C482.645 42.1428 482.973 40.5204 483.628 39.054C484.283 37.5564 485.157 36.324 486.249 35.3568C487.341 34.3584 488.605 33.516 490.04 32.8296ZM500.897 36.1524C498.994 36.1524 497.965 37.6968 497.809 40.7856C499.306 40.9104 500.086 40.9728 500.149 40.9728C502.208 40.9728 503.237 40.2864 503.237 38.9136C503.237 37.0728 502.457 36.1524 500.897 36.1524Z" fill="#B89E97"/>
<path d="M522.434 32.8296C523.869 32.112 525.336 31.5972 526.833 31.2852C528.362 30.9732 530.234 30.8172 532.449 30.8172C534.696 30.8172 536.833 31.098 538.861 31.6596C540.889 32.19 542.402 32.9232 543.4 33.8592C545.148 35.5752 546.021 37.5876 546.021 39.8964C546.021 43.5156 542.964 45.3252 536.848 45.3252C534.696 45.3252 532.465 45.1224 530.156 44.7168C530.25 46.776 530.624 48.2268 531.279 49.0692C531.966 49.9116 533.167 50.3328 534.883 50.3328C536.599 50.3328 538.018 50.1456 539.142 49.7712C540.265 49.3968 541.17 49.0224 541.856 48.648C542.542 48.2424 543.12 48.0396 543.588 48.0396C544.087 48.0396 544.508 48.258 544.851 48.6948C545.382 49.2564 545.647 50.0364 545.647 51.0348C545.647 52.002 545.444 52.6728 545.038 53.0472C544.664 53.3904 544.056 53.7336 543.213 54.0768C540.249 55.3248 536.037 55.9488 530.577 55.9488C526.053 55.9488 522.325 54.8724 519.392 52.7196C516.49 50.5356 515.04 47.6028 515.04 43.9212C515.04 42.1428 515.367 40.5204 516.022 39.054C516.678 37.5564 517.551 36.324 518.643 35.3568C519.735 34.3584 520.999 33.516 522.434 32.8296ZM533.292 36.1524C531.388 36.1524 530.359 37.6968 530.203 40.7856C531.7 40.9104 532.48 40.9728 532.543 40.9728C534.602 40.9728 535.632 40.2864 535.632 38.9136C535.632 37.0728 534.852 36.1524 533.292 36.1524Z" fill="#B89E97"/>
<path d="M558.666 49.0692C558.666 48.1956 558.292 47.5092 557.543 47.01C556.825 46.5108 555.936 46.1364 554.875 45.8868C553.846 45.606 552.8 45.294 551.74 44.9508C550.679 44.5764 549.774 43.9524 549.025 43.0788C548.308 42.174 547.949 40.9884 547.949 39.522C547.949 33.7188 552.457 30.8172 561.474 30.8172C565.343 30.8172 568.447 31.4724 570.787 32.7828C571.536 33.1884 572.066 33.5784 572.378 33.9528C572.69 34.296 572.846 34.92 572.846 35.8248C572.846 36.7296 572.659 37.416 572.285 37.884C571.942 38.3208 571.583 38.5392 571.208 38.5392C570.865 38.5392 570.085 38.196 568.868 37.5096C567.683 36.792 566.45 36.4176 565.171 36.3864C564.142 36.3864 563.627 36.9012 563.627 37.9308C563.627 38.6172 563.986 39.1632 564.703 39.5688C565.421 39.9744 566.294 40.3332 567.324 40.6452C568.354 40.926 569.383 41.2848 570.413 41.7216C571.442 42.1272 572.316 42.8292 573.034 43.8276C573.751 44.7948 574.11 46.0272 574.11 47.5248C574.11 53.328 569.602 56.2296 560.585 56.2296C556.186 56.2296 552.598 55.59 549.821 54.3108C548.978 53.9676 548.37 53.6244 547.996 53.2812C547.621 52.9068 547.434 52.2516 547.434 51.3156C547.434 50.3484 547.621 49.662 547.996 49.2564C548.401 48.8508 548.729 48.648 548.978 48.648C549.259 48.648 550.164 48.9912 551.693 49.6776C553.222 50.364 554.766 50.7072 556.326 50.7072C557.886 50.7072 558.666 50.1612 558.666 49.0692Z" fill="#B89E97"/>
<path d="M473.337 52.3452C473.306 53.0316 473.01 53.6712 472.448 54.264C471.886 54.8256 471.138 55.1376 470.202 55.2C468.423 55.3248 466.286 55.3872 463.79 55.3872C461.294 55.3872 459.001 55.3248 456.91 55.2C455.974 55.1376 455.226 54.8256 454.664 54.264C454.102 53.6712 453.806 53.0316 453.775 52.3452C453.681 47.6028 453.634 43.5624 453.634 40.224C453.634 36.8544 453.65 34.3896 453.681 32.8296C453.681 31.644 453.151 31.0512 452.09 31.0512H447.878C447.223 31.0512 446.692 30.8952 446.287 30.5832C445.881 30.2712 445.647 29.7252 445.585 28.9452C445.554 28.1652 445.538 27.354 445.538 26.5116C445.538 25.6692 445.554 24.9516 445.585 24.3588C445.647 23.7348 445.897 23.2668 446.334 22.9548C446.802 22.6116 447.301 22.44 447.831 22.44C451.887 22.3776 457.378 22.3464 464.305 22.3464C471.231 22.3464 476.192 22.3776 479.187 22.44C479.718 22.4712 480.201 22.6428 480.638 22.9548C481.106 23.2668 481.356 23.7348 481.387 24.3588C481.449 24.9516 481.48 25.6536 481.48 26.4648C481.48 27.276 481.465 28.056 481.434 28.8048C481.34 30.2088 480.576 30.9108 479.14 30.9108H474.928C473.868 30.9108 473.337 31.4568 473.337 32.5488C473.431 36.48 473.478 40.0368 473.478 43.2192C473.478 46.4016 473.431 49.4436 473.337 52.3452Z" stroke="#333333" stroke-width="8" mask="url(#path-6-outside-2)"/>
<path d="M490.04 32.8296C491.475 32.112 492.941 31.5972 494.439 31.2852C495.968 30.9732 497.84 30.8172 500.055 30.8172C502.301 30.8172 504.439 31.098 506.467 31.6596C508.495 32.19 510.008 32.9232 511.006 33.8592C512.753 35.5752 513.627 37.5876 513.627 39.8964C513.627 43.5156 510.569 45.3252 504.454 45.3252C502.301 45.3252 500.071 45.1224 497.762 44.7168C497.855 46.776 498.23 48.2268 498.885 49.0692C499.571 49.9116 500.773 50.3328 502.489 50.3328C504.205 50.3328 505.624 50.1456 506.747 49.7712C507.871 49.3968 508.775 49.0224 509.462 48.648C510.148 48.2424 510.725 48.0396 511.193 48.0396C511.693 48.0396 512.114 48.258 512.457 48.6948C512.987 49.2564 513.253 50.0364 513.253 51.0348C513.253 52.002 513.05 52.6728 512.644 53.0472C512.27 53.3904 511.661 53.7336 510.819 54.0768C507.855 55.3248 503.643 55.9488 498.183 55.9488C493.659 55.9488 489.931 54.8724 486.998 52.7196C484.096 50.5356 482.645 47.6028 482.645 43.9212C482.645 42.1428 482.973 40.5204 483.628 39.054C484.283 37.5564 485.157 36.324 486.249 35.3568C487.341 34.3584 488.605 33.516 490.04 32.8296ZM500.897 36.1524C498.994 36.1524 497.965 37.6968 497.809 40.7856C499.306 40.9104 500.086 40.9728 500.149 40.9728C502.208 40.9728 503.237 40.2864 503.237 38.9136C503.237 37.0728 502.457 36.1524 500.897 36.1524Z" stroke="#333333" stroke-width="8" mask="url(#path-6-outside-2)"/>
<path d="M522.434 32.8296C523.869 32.112 525.336 31.5972 526.833 31.2852C528.362 30.9732 530.234 30.8172 532.449 30.8172C534.696 30.8172 536.833 31.098 538.861 31.6596C540.889 32.19 542.402 32.9232 543.4 33.8592C545.148 35.5752 546.021 37.5876 546.021 39.8964C546.021 43.5156 542.964 45.3252 536.848 45.3252C534.696 45.3252 532.465 45.1224 530.156 44.7168C530.25 46.776 530.624 48.2268 531.279 49.0692C531.966 49.9116 533.167 50.3328 534.883 50.3328C536.599 50.3328 538.018 50.1456 539.142 49.7712C540.265 49.3968 541.17 49.0224 541.856 48.648C542.542 48.2424 543.12 48.0396 543.588 48.0396C544.087 48.0396 544.508 48.258 544.851 48.6948C545.382 49.2564 545.647 50.0364 545.647 51.0348C545.647 52.002 545.444 52.6728 545.038 53.0472C544.664 53.3904 544.056 53.7336 543.213 54.0768C540.249 55.3248 536.037 55.9488 530.577 55.9488C526.053 55.9488 522.325 54.8724 519.392 52.7196C516.49 50.5356 515.04 47.6028 515.04 43.9212C515.04 42.1428 515.367 40.5204 516.022 39.054C516.678 37.5564 517.551 36.324 518.643 35.3568C519.735 34.3584 520.999 33.516 522.434 32.8296ZM533.292 36.1524C531.388 36.1524 530.359 37.6968 530.203 40.7856C531.7 40.9104 532.48 40.9728 532.543 40.9728C534.602 40.9728 535.632 40.2864 535.632 38.9136C535.632 37.0728 534.852 36.1524 533.292 36.1524Z" stroke="#333333" stroke-width="8" mask="url(#path-6-outside-2)"/>
<path d="M558.666 49.0692C558.666 48.1956 558.292 47.5092 557.543 47.01C556.825 46.5108 555.936 46.1364 554.875 45.8868C553.846 45.606 552.8 45.294 551.74 44.9508C550.679 44.5764 549.774 43.9524 549.025 43.0788C548.308 42.174 547.949 40.9884 547.949 39.522C547.949 33.7188 552.457 30.8172 561.474 30.8172C565.343 30.8172 568.447 31.4724 570.787 32.7828C571.536 33.1884 572.066 33.5784 572.378 33.9528C572.69 34.296 572.846 34.92 572.846 35.8248C572.846 36.7296 572.659 37.416 572.285 37.884C571.942 38.3208 571.583 38.5392 571.208 38.5392C570.865 38.5392 570.085 38.196 568.868 37.5096C567.683 36.792 566.45 36.4176 565.171 36.3864C564.142 36.3864 563.627 36.9012 563.627 37.9308C563.627 38.6172 563.986 39.1632 564.703 39.5688C565.421 39.9744 566.294 40.3332 567.324 40.6452C568.354 40.926 569.383 41.2848 570.413 41.7216C571.442 42.1272 572.316 42.8292 573.034 43.8276C573.751 44.7948 574.11 46.0272 574.11 47.5248C574.11 53.328 569.602 56.2296 560.585 56.2296C556.186 56.2296 552.598 55.59 549.821 54.3108C548.978 53.9676 548.37 53.6244 547.996 53.2812C547.621 52.9068 547.434 52.2516 547.434 51.3156C547.434 50.3484 547.621 49.662 547.996 49.2564C548.401 48.8508 548.729 48.648 548.978 48.648C549.259 48.648 550.164 48.9912 551.693 49.6776C553.222 50.364 554.766 50.7072 556.326 50.7072C557.886 50.7072 558.666 50.1612 558.666 49.0692Z" stroke="#333333" stroke-width="8" mask="url(#path-6-outside-2)"/>
<defs>
<filter id="filter0_d" x="0" y="0" width="104.596" height="86" filterUnits="userSpaceOnUse" color-interpolation-filters="sRGB">
<feFlood flood-opacity="0" result="BackgroundImageFix"/>
<feColorMatrix in="SourceAlpha" type="matrix" values="0 0 0 0 0 0 0 0 0 0 0 0 0 0 0 0 0 0 127 0"/>
<feOffset dy="4"/>
<feGaussianBlur stdDeviation="2"/>
<feColorMatrix type="matrix" values="0 0 0 0 0 0 0 0 0 0 0 0 0 0 0 0 0 0 0.25 0"/>
<feBlend mode="normal" in2="BackgroundImageFix" result="effect1_dropShadow"/>
<feBlend mode="normal" in="SourceGraphic" in2="effect1_dropShadow" result="shape"/>
</filter>
</defs>
</svg>
