<svg width="131" height="54" viewBox="0 0 131 54" fill="none" xmlns="http://www.w3.org/2000/svg">
<path d="M26.5261 44.5H29.0261V42V34.4211V33.6505C29.0813 33.955 29.1412 34.252 29.2061 34.5415L29.2106 34.5615L29.2154 34.5813C29.7311 36.7181 30.6132 38.6391 31.8886 40.301C33.2674 42.0976 35.1355 43.3569 37.3675 44.1266C39.5433 44.8769 42.113 45.2105 45.0035 45.2105C47.894 45.2105 50.4637 44.8769 52.6395 44.1266C54.8715 43.3569 56.7395 42.0976 58.1183 40.301C59.3982 38.6334 60.2659 36.705 60.7489 34.5617C61.2491 32.4802 61.4772 30.018 61.4772 27.2211C61.4772 21.6134 60.4472 16.9759 57.8833 13.8467C55.1517 10.48 50.5511 9.18421 45.0035 9.18421C39.456 9.18421 34.8555 10.4799 32.1238 13.8465C29.5598 16.9757 28.5298 21.6133 28.5298 27.2211C28.5298 28.9167 28.6079 30.4865 28.7728 31.9211H26.5261H19.5524V12.3947V9.89474H17.0524H7.57874H5.07874V12.3947V42V44.5H7.57874H26.5261ZM43.714 32.1105V22.3546C43.997 22.3124 44.3743 22.2842 44.8614 22.2842H46.3403V32.0464C46.0448 32.0852 45.6517 32.1105 45.1456 32.1105H43.714ZM78.3453 22.2579H76.8664V22.2115C77.4222 22.0992 78.4049 22 79.9558 22C81.1883 22 82.5304 22.0844 83.9849 22.2579H78.3453ZM79.1979 9.18421C73.0367 9.18421 67.9916 10.5224 65.1668 14.1013C63.8153 15.7669 62.889 17.7013 62.3677 19.8608L62.364 19.8761L62.3605 19.8915C61.8939 21.9373 61.6821 24.397 61.6821 27.2211C61.6821 30.0177 61.8946 32.472 62.3585 34.5415C62.8407 36.6928 63.7098 38.6281 64.9936 40.301L64.9971 40.3055C67.7255 43.8439 72.4206 45.2105 78.1085 45.2105C82.4216 45.2105 86.6054 44.445 90.6454 42.9173L92.2611 42.3063V40.5789V24.7579V22.2579H89.7611H89.0559L89.3723 20.6442L90.7933 13.3968L91.212 11.2617L89.155 10.5524C87.9834 10.1483 86.3178 9.83975 84.2996 9.58339C82.2917 9.32437 80.5799 9.18421 79.1979 9.18421ZM94.0768 34.5415L94.0813 34.5615L94.0861 34.5813C94.6018 36.7181 95.4839 38.6391 96.7593 40.301C98.1381 42.0976 100.006 43.3569 102.238 44.1266C104.414 44.8769 106.984 45.2105 109.874 45.2105C112.765 45.2105 115.334 44.8769 117.51 44.1266C119.742 43.3569 121.61 42.0976 122.989 40.301C124.269 38.6333 125.137 36.7048 125.62 34.5615C126.12 32.48 126.348 30.0179 126.348 27.2211C126.348 21.6134 125.318 16.9759 122.754 13.8467C120.022 10.48 115.422 9.18421 109.874 9.18421C104.327 9.18421 99.7259 10.48 96.9943 13.8467C94.4304 16.9759 93.4005 21.6134 93.4005 27.2211C93.4005 30.0177 93.613 32.472 94.0768 34.5415ZM108.585 32.1105V22.3546C108.868 22.3124 109.245 22.2842 109.732 22.2842H111.211V32.0464C110.916 32.0852 110.522 32.1105 110.016 32.1105H108.585Z" fill="#1098F7" stroke="black" stroke-width="5"/>
</svg>
